<svg width="605" height="491" xmlns="http://www.w3.org/2000/svg" xmlns:xlink="http://www.w3.org/1999/xlink" overflow="hidden"><defs><clipPath id="clip0"><rect x="0" y="0" width="605" height="491"/></clipPath></defs><g clip-path="url(#clip0)"><rect x="0" y="0" width="605" height="491.395" fill="#156082" fill-opacity="0"/><rect x="13" y="112.861" width="495" height="65.9189" stroke="#042433" stroke-width="2.0011" stroke-miterlimit="8" fill="#F18F1F"/><text font-family="Aptos,Aptos_MSFontService,sans-serif" font-weight="700" font-size="21.3189" transform="matrix(1 0 0 0.998771 22.522 144)">Detector Simulation + Low Level Reconstruction</text><text font-family="Aptos,Aptos_MSFontService,sans-serif" font-weight="400" font-size="15.9891" transform="matrix(1 0 0 0.998771 22.522 164)">Either fast (SGV) or full simulation (Geant4)</text><rect x="13" y="206.746" width="376" height="65.9188" stroke="#042433" stroke-width="2.0011" stroke-miterlimit="8" fill="#F18F1F"/><text font-family="Aptos,Aptos_MSFontService,sans-serif" font-weight="700" font-size="21.3189" transform="matrix(1 0 0 0.998771 22.5221 237)">High</text><text font-family="Aptos,Aptos_MSFontService,sans-serif" font-weight="700" font-size="21.3189" transform="matrix(1 0 0 0.998771 66.8799 237)">-</text><text font-family="Aptos,Aptos_MSFontService,sans-serif" font-weight="700" font-size="21.3189" transform="matrix(1 0 0 0.998771 74.2173 237)">level Reconstruction / HLR</text><text font-family="Aptos,Aptos_MSFontService,sans-serif" font-weight="400" font-size="15.9891" transform="matrix(1 0 0 0.998771 22.5221 257)">Isolated lepton ID, jet clustering, flavor tagging</text><path d="M203.001 178.281 203.001 198.926 199.999 198.926 199.999 178.281ZM206.003 197.427 201.5 206.421 196.998 197.427Z"/><rect x="13" y="305.624" width="376" height="65.9189" stroke="#042433" stroke-width="2.0011" stroke-miterlimit="8" fill="#F18F1F"/><text font-family="Aptos,Aptos_MSFontService,sans-serif" font-weight="700" font-size="21.3189" transform="matrix(1 0 0 0.998771 22.5221 336)">Channel specific analysis / CSA</text><text font-family="Aptos,Aptos_MSFontService,sans-serif" font-weight="400" font-size="15.9891" transform="matrix(1 0 0 0.998771 22.5221 356)">Neutrino correction, kinematic fits, observables</text><path d="M203.001 273.164 203.001 298.696 199.999 298.696 199.999 273.164ZM206.003 297.197 201.5 306.191 196.998 297.197Z"/><rect x="13" y="404.502" width="376" height="65.9188" stroke="#042433" stroke-width="2.0011" stroke-miterlimit="8" fill="#F18F1F"/><text font-family="Aptos,Aptos_MSFontService,sans-serif" font-weight="700" font-size="21.3189" transform="matrix(1 0 0 0.998771 22.5221 435)">Multivariate analysis</text><text font-family="Aptos,Aptos_MSFontService,sans-serif" font-weight="400" font-size="15.9891" transform="matrix(1 0 0 0.998771 22.5221 455)">Train classifiers for signal/background separation</text><path d="M203.001 372.042 203.001 397.574 199.999 397.574 199.999 372.042ZM206.003 396.075 201.5 405.069 196.998 396.075Z"/><rect x="470" y="206.746" width="122" height="65.9188" stroke="#042433" stroke-width="2.0011" stroke-miterlimit="8" fill="#F18F1F"/><text font-family="Aptos,Aptos_MSFontService,sans-serif" font-weight="400" font-size="21.3189" transform="matrix(1 0 0 0.998771 496.185 234)">ROOT +</text><text font-family="Aptos,Aptos_MSFontService,sans-serif" font-weight="400" font-size="21.3189" transform="matrix(1 0 0 0.998771 486.3 259)">LCIO files</text><path d="M389.5 238.705 462.517 238.705 462.517 241.703 389.5 241.703ZM461.017 235.708 470.022 240.204 461.017 244.701Z"/><rect x="470" y="305.624" width="122" height="65.9189" stroke="#042433" stroke-width="2.0011" stroke-miterlimit="8" fill="#F18F1F"/><text font-family="Aptos,Aptos_MSFontService,sans-serif" font-weight="400" font-size="21.3189" transform="matrix(1 0 0 0.998771 496.185 333)">ROOT +</text><text font-family="Aptos,Aptos_MSFontService,sans-serif" font-weight="400" font-size="21.3189" transform="matrix(1 0 0 0.998771 486.3 357)">LCIO files</text><path d="M389.5 337.584 462.517 337.584 462.517 340.582 389.5 340.582ZM461.017 334.586 470.022 339.083 461.017 343.58Z"/><rect x="470" y="405.501" width="122" height="65.9189" stroke="#042433" stroke-width="2.0011" stroke-miterlimit="8" fill="#F18F1F"/><text font-family="Aptos,Aptos_MSFontService,sans-serif" font-weight="400" font-size="21.3189" transform="matrix(1 0 0 0.998771 504.543 432)">Plots,</text><text font-family="Aptos,Aptos_MSFontService,sans-serif" font-weight="400" font-size="21.3189" transform="matrix(1 0 0 0.998771 501.402 457)">Tables</text><path d="M389.509 436.462 462.527 436.911 462.508 439.909 389.491 439.46ZM461.045 433.904 470.022 438.456 460.989 442.898Z"/><rect x="13" y="19.9754" width="376" height="65.9189" stroke="#042433" stroke-width="2.0011" stroke-miterlimit="8" fill="#F18F1F"/><text font-family="Aptos,Aptos_MSFontService,sans-serif" font-weight="700" font-size="21.3189" transform="matrix(1 0 0 0.998771 22.522 50)">Event Generation</text><text font-family="Aptos,Aptos_MSFontService,sans-serif" font-weight="400" font-size="15.9891" transform="matrix(1 0 0 0.998771 22.522 70)">Typically using Whizard3+</text><path d="M203.001 86.3937 203.001 107.175 199.999 107.175 199.999 86.3937ZM206.003 105.676 201.5 114.67 196.998 105.676Z"/><path d="M0 2.49689C-2.54314e-16 1.11789 0.89433 -3.17887e-16 1.99754 -6.35774e-16 3.10075-1.27155e-15 3.99508 1.11789 3.99508 2.49689 3.99508 3.87588 3.10075 4.99377 1.99754 4.99377 0.89433 4.99377-1.27157e-15 3.87588 0 2.49689Z" fill="#F18F1F" fill-rule="evenodd" transform="matrix(1.00123 0 0 -1 199 118.854)"/><path d="M0 1.99754C-2.54314e-16 0.89433 0.89433 -2.54314e-16 1.99754 -5.08627e-16 3.10075-1.01725e-15 3.99508 0.89433 3.99508 1.99754 3.99508 3.10075 3.10075 3.99508 1.99754 3.99508 0.89433 3.99508-1.27157e-15 3.10075 0 1.99754Z" fill="#F18F1F" fill-rule="evenodd" transform="matrix(1.00123 0 0 -1 199 177.781)"/></g></svg>